<svg width="34" height="34" viewBox="0 0 34 34" fill="none" xmlns="http://www.w3.org/2000/svg">
<path d="M7.08301 11.3335C7.08301 7.32656 7.08301 5.32309 8.3278 4.07829C9.5726 2.8335 11.5761 2.8335 15.583 2.8335H18.4163C22.4233 2.8335 24.4267 2.8335 25.6715 4.07829C26.9163 5.32309 26.9163 7.32656 26.9163 11.3335V22.6668C26.9163 26.6738 26.9163 28.6772 25.6715 29.922C24.4267 31.1668 22.4233 31.1668 18.4163 31.1668H15.583C11.5761 31.1668 9.5726 31.1668 8.3278 29.922C7.08301 28.6772 7.08301 26.6738 7.08301 22.6668V11.3335Z" stroke="#084783" stroke-width="1.5"/>
<path opacity="0.5" d="M20.5413 26.9165H13.458" stroke="#084783" stroke-width="1.5" stroke-linecap="round"/>
<path opacity="0.5" d="M31.1664 8.5L30.0666 10.6998C29.8671 11.0986 29.8671 11.5681 30.0666 11.9669L30.8497 13.5331C31.0491 13.9319 31.0491 14.4014 30.8497 14.8002L30.0666 16.3664C29.8671 16.7653 29.8671 17.2347 30.0666 17.6336L30.8497 19.1998C31.0491 19.5986 31.0491 20.0681 30.8497 20.4669L30.0666 22.0331C29.8671 22.4319 29.8671 22.9014 30.0666 23.3002L31.1664 25.5" stroke="#084783" stroke-width="1.5" stroke-linecap="round" stroke-linejoin="round"/>
<path opacity="0.5" d="M2.83301 8.5L3.9329 10.6998C4.13231 11.0986 4.13231 11.5681 3.9329 11.9669L3.14978 13.5331C2.95037 13.9319 2.95037 14.4014 3.14978 14.8002L3.9329 16.3664C4.13231 16.7653 4.13231 17.2347 3.9329 17.6336L3.14978 19.1998C2.95037 19.5986 2.95037 20.0681 3.14978 20.4669L3.9329 22.0331C4.13231 22.4319 4.13231 22.9014 3.9329 23.3002L2.83301 25.5" stroke="#084783" stroke-width="1.5" stroke-linecap="round" stroke-linejoin="round"/>
</svg>
