<svg width="26" height="24" viewBox="0 0 26 24" fill="none" xmlns="http://www.w3.org/2000/svg">
<path d="M2.16699 10.9997C2.16699 6.91417 2.16699 4.87142 3.4362 3.60221C4.7054 2.33301 6.74815 2.33301 10.8337 2.33301H15.167C19.2525 2.33301 21.2952 2.33301 22.5645 3.60221C23.8337 4.87142 23.8337 6.91417 23.8337 10.9997C23.8337 15.0852 23.8337 17.1279 22.5645 18.3971C21.2952 19.6663 19.2525 19.6663 15.167 19.6663H10.8337C6.74815 19.6663 4.7054 19.6663 3.4362 18.3971C2.16699 17.1279 2.16699 15.0852 2.16699 10.9997Z" stroke="#084783" stroke-width="1.5"/>
<path d="M6.5 6.66699L8.8388 8.616C10.8285 10.2741 11.8233 11.1031 13 11.1031C14.1767 11.1031 15.1715 10.2741 17.1612 8.61599L19.5 6.66699" stroke="#084783" stroke-width="1.5" stroke-linecap="round"/>
</svg>
